<svg width="21" height="18" viewBox="0 0 21 18" fill="none" xmlns="http://www.w3.org/2000/svg">
<path d="M14.6673 16.5V14.8333C14.6673 13.9493 14.3161 13.1014 13.691 12.4763C13.0659 11.8512 12.218 11.5 11.334 11.5H4.66732C3.78326 11.5 2.93542 11.8512 2.3103 12.4763C1.68517 13.1014 1.33398 13.9493 1.33398 14.8333V16.5M19.6673 16.5V14.8333C19.6668 14.0948 19.4209 13.3773 18.9685 12.7936C18.516 12.2099 17.8824 11.793 17.1673 11.6083M13.834 1.60833C14.551 1.79192 15.1865 2.20892 15.6403 2.79359C16.0942 3.37827 16.3405 4.09736 16.3405 4.8375C16.3405 5.57764 16.0942 6.29673 15.6403 6.88141C15.1865 7.46608 14.551 7.88308 13.834 8.06667M11.334 4.83333C11.334 6.67428 9.8416 8.16667 8.00065 8.16667C6.1597 8.16667 4.66732 6.67428 4.66732 4.83333C4.66732 2.99238 6.1597 1.5 8.00065 1.5C9.8416 1.5 11.334 2.99238 11.334 4.83333Z" stroke="currentColor" stroke-width="2" stroke-linecap="round" stroke-linejoin="round"/>
</svg>
